# xmcd
#
# Track frame offsets:
#	150
#	18010
#	36873
#	54748
#	68364
#
# Disc length: 1145 seconds
#
# Revision: 0
# Processed by: cddbd v1.5.1PL2 Copyright (c) Steve Scherf et al.
# Submitted via: dBpowerAMP V4.0
#
DISCID=33047705
DTITLE=Various Artist - Woman To Woman 
DYEAR=1994
DGENRE=Blues
TTITLE0=Shirley Brown - Woman to Woman
TTITLE1=Free Fallin' - Tom Petty
TTITLE2=Funky Town - Mix Master Chris
TTITLE3=Track04 - 
TTITLE4=Track05 - 
EXTD=Woman To Woman\n
EXTT0=
EXTT1=
EXTT2=
EXTT3=
EXTT4=
PLAYORDER=
